<svg width="151" height="101" viewBox="0 0 151 101" fill="none" xmlns="http://www.w3.org/2000/svg">
<path d="M114.746 82.8744C115.177 82 116.644 82.0754 117.004 82.9816C117.553 84.3648 118.31 85.9005 119.219 86.8097C120.036 87.6273 121.361 88.3214 122.625 88.8524C123.56 89.2447 123.587 90.8674 122.663 91.2834C121.387 91.8576 120.045 92.5932 119.219 93.4191C118.305 94.3332 117.545 95.8371 116.995 97.1795C116.63 98.0702 115.197 98.1467 114.76 97.289C114.063 95.9195 113.148 94.3581 112.209 93.4191C111.361 92.5715 110.082 91.819 108.904 91.2384C108.029 90.8068 108.058 89.2991 108.945 88.8917C110.111 88.3559 111.371 87.6476 112.209 86.8097C113.141 85.877 114.05 84.2848 114.746 82.8744Z" fill="#E63746"/>
<path d="M27.2827 81.8744C26.8515 81 25.3842 81.0754 25.0244 81.9816C24.4751 83.3648 23.7187 84.9005 22.8096 85.8097C21.9919 86.6273 20.6675 87.3214 19.403 87.8524C18.4687 88.2447 18.4408 89.8674 19.3649 90.2834C20.6408 90.8576 21.9837 91.5932 22.8096 92.4191C23.7237 93.3332 24.4835 94.8371 25.0334 96.1795C25.3983 97.0702 26.8318 97.1467 27.2685 96.289C27.9657 94.9195 28.8805 93.3581 29.8195 92.4191C30.6671 91.5715 31.9464 90.819 33.1239 90.2384C33.9993 89.8068 33.9707 88.2991 33.0838 87.8917C31.9174 87.3559 30.6575 86.6476 29.8195 85.8097C28.8868 84.877 27.9781 83.2848 27.2827 81.8744Z" fill="#E63746"/>
<circle cx="71" cy="45" r="45" fill="#1D3658"/>
<g filter="url(#filter0_d_45_137)">
<path d="M126.274 8.97836C128.872 7.23838 132.382 7.87913 134.196 10.4246C136.087 13.0767 135.414 16.767 132.708 18.5799L78.9005 54.6307C73.3905 58.3224 65.8673 57.1527 61.8155 51.9578L61.6251 51.7078L49.1417 34.8446C47.1915 32.2104 47.8029 28.486 50.4932 26.6141C53.074 24.8187 56.6147 25.4 58.4854 27.9266L71.085 44.9471C71.3417 45.2934 71.8969 45.4121 72.3096 45.1356L126.274 8.97836Z" fill="#E63746"/>
</g>
<path d="M127.778 58.8862C128.191 58.0031 129.635 58.0779 129.969 58.9938C130.695 60.9824 131.805 63.4727 133.184 64.8526C134.467 66.1351 136.709 67.184 138.616 67.9084C139.563 68.2684 139.591 69.854 138.654 70.2409C136.739 71.032 134.476 72.1535 133.184 73.4448C131.8 74.8293 130.688 77.2547 129.962 79.1763C129.622 80.0767 128.21 80.152 127.79 79.2858C126.851 77.3477 125.482 74.8558 124.071 73.4448C122.76 72.1331 120.653 70.9965 118.92 70.2036C118.033 69.7974 118.061 68.3185 118.961 67.9401C120.686 67.2147 122.77 66.154 124.071 64.8526C125.476 63.4477 126.839 60.8918 127.778 58.8862Z" fill="#E63746"/>
<path d="M14.2594 58.8862C13.8462 58.0031 12.4022 58.0779 12.0678 58.9938C11.3419 60.9824 10.2326 63.4727 8.85271 64.8526C7.57014 66.1351 5.32823 67.184 3.42154 67.9084C2.47424 68.2684 2.44627 69.854 3.38288 70.2409C5.29785 71.032 7.56147 72.1535 8.85271 73.4448C10.2373 74.8293 11.3495 77.2547 12.0752 79.1763C12.4153 80.0767 13.8276 80.152 14.2471 79.2858C15.1858 77.3477 16.5546 74.8558 17.9656 73.4448C19.2773 72.1331 21.3845 70.9965 23.1169 70.2036C24.0043 69.7974 23.9756 68.3185 23.076 67.9401C21.3514 67.2147 19.267 66.154 17.9656 64.8526C16.5608 63.4477 15.1978 60.8918 14.2594 58.8862Z" fill="#E63746"/>
<defs>
<filter id="filter0_d_45_137" x="33" y="3" width="117.27" height="78.7814" filterUnits="userSpaceOnUse" color-interpolation-filters="sRGB">
<feFlood flood-opacity="0" result="BackgroundImageFix"/>
<feColorMatrix in="SourceAlpha" type="matrix" values="0 0 0 0 0 0 0 0 0 0 0 0 0 0 0 0 0 0 127 0" result="hardAlpha"/>
<feOffset dy="10"/>
<feGaussianBlur stdDeviation="7.5"/>
<feComposite in2="hardAlpha" operator="out"/>
<feColorMatrix type="matrix" values="0 0 0 0 0 0 0 0 0 0 0 0 0 0 0 0 0 0 0.25 0"/>
<feBlend mode="normal" in2="BackgroundImageFix" result="effect1_dropShadow_45_137"/>
<feBlend mode="normal" in="SourceGraphic" in2="effect1_dropShadow_45_137" result="shape"/>
</filter>
</defs>
</svg>
