<svg width="359" height="149" viewBox="0 0 359 149" fill="none" xmlns="http://www.w3.org/2000/svg">
<mask id="mask0_39_53" style="mask-type:alpha" maskUnits="userSpaceOnUse" x="115" y="15" width="201" height="119">
<rect x="115.525" y="15.7458" width="200" height="117.26" rx="10" fill="#1D3658"/>
</mask>
<g mask="url(#mask0_39_53)">
<rect x="115.525" y="15.7458" width="200" height="117.26" rx="10" fill="#1D3658"/>
<g filter="url(#filter0_d_39_53)">
<path d="M215.799 78.7596L335.382 14.239H96.2163L215.799 78.7596Z" fill="#1D3658"/>
</g>
</g>
<path d="M215.525 28.8968C227.327 28.8971 236.894 38.464 236.895 50.266V71.5228C240.586 72.9935 243.196 76.5987 243.196 80.8148V110.13C243.196 115.653 238.719 120.13 233.196 120.13H198.401C192.879 120.13 188.402 115.653 188.401 110.13V80.8148C188.401 76.8103 190.756 73.356 194.155 71.7591V50.266C194.156 38.4639 203.723 28.8968 215.525 28.8968ZM215.525 84.513C213.256 84.5131 211.415 86.3538 211.415 88.6234V102.322C211.415 104.591 213.256 106.431 215.525 106.431C217.795 106.431 219.635 104.591 219.635 102.322V88.6234C219.635 86.3538 217.795 84.5132 215.525 84.513ZM215.525 37.1156C208.263 37.1156 202.374 43.0032 202.374 50.266V70.8148H228.676V50.266C228.676 43.0034 222.788 37.1158 215.525 37.1156Z" fill="#E63746"/>
<path d="M87.2848 2.7931C87.6925 1.91745 89.0979 1.99354 89.4213 2.90368C90.3222 5.43901 91.8402 8.99899 93.78 10.88C95.5862 12.6315 98.8936 14.0283 101.451 14.9177C102.416 15.2532 102.443 16.835 101.489 17.1991C98.9259 18.1765 95.595 19.68 93.78 21.44C91.8355 23.3256 90.3149 26.7816 89.4148 29.2257C89.0854 30.1201 87.7106 30.1967 87.2963 29.3383C86.1139 26.8889 84.2045 23.3547 82.23 21.44C80.3947 19.6603 77.3309 18.143 75.0336 17.1666C74.1271 16.7813 74.156 15.3001 75.0744 14.9444C77.3671 14.0564 80.4056 12.6491 82.23 10.88C84.1982 8.97147 86.1015 5.33451 87.2848 2.7931Z" fill="#E63746"/>
<path d="M341.285 119.793C341.692 118.917 343.098 118.994 343.421 119.904C344.322 122.439 345.84 125.999 347.78 127.88C349.586 129.631 352.894 131.028 355.451 131.918C356.416 132.253 356.443 133.835 355.489 134.199C352.926 135.177 349.595 136.68 347.78 138.44C345.836 140.326 344.315 143.782 343.415 146.226C343.085 147.12 341.711 147.197 341.296 146.338C340.114 143.889 338.205 140.355 336.23 138.44C334.395 136.66 331.331 135.143 329.034 134.167C328.127 133.781 328.156 132.3 329.074 131.944C331.367 131.056 334.406 129.649 336.23 127.88C338.198 125.971 340.102 122.335 341.285 119.793Z" fill="#E63746"/>
<rect x="105" y="83" width="10" height="80" rx="5" transform="rotate(90 105 83)" fill="#E63746"/>
<rect x="95" y="103" width="10" height="95" rx="5" transform="rotate(90 95 103)" fill="#E63746"/>
<rect x="105" y="123" width="10" height="80" rx="5" transform="rotate(90 105 123)" fill="#E63746"/>
<defs>
<filter id="filter0_d_39_53" x="92.2163" y="14.239" width="247.166" height="78.5205" filterUnits="userSpaceOnUse" color-interpolation-filters="sRGB">
<feFlood flood-opacity="0" result="BackgroundImageFix"/>
<feColorMatrix in="SourceAlpha" type="matrix" values="0 0 0 0 0 0 0 0 0 0 0 0 0 0 0 0 0 0 127 0" result="hardAlpha"/>
<feOffset dy="10"/>
<feGaussianBlur stdDeviation="2"/>
<feComposite in2="hardAlpha" operator="out"/>
<feColorMatrix type="matrix" values="0 0 0 0 0 0 0 0 0 0 0 0 0 0 0 0 0 0 0.25 0"/>
<feBlend mode="normal" in2="BackgroundImageFix" result="effect1_dropShadow_39_53"/>
<feBlend mode="normal" in="SourceGraphic" in2="effect1_dropShadow_39_53" result="shape"/>
</filter>
</defs>
</svg>
